<svg xmlns="http://www.w3.org/2000/svg" width="49" height="30"><g transform="matrix(.23 0 0 .214 -12.761 -71.522)" fill-rule="evenodd"><g fill="#85be46"><polygon points="254.615,413.054 251.613,422 265.347,422.101 267.912,402.224 168.687,401.39 161.636,417.482"/><path d="M221.887 432.26l.138 15.02c.132 7.939 4.157 11.816 12.127 11.666l11.615-.211c4.159-.092 7.466-1.014 9.982-2.791 2.504-1.805 4.143-4.418 4.928-7.883.774-3.461 2.559-8.592 3.428-14.404-.307-.08-13.923-.965-13.923-.965-.447 8.725-1.032 10.793-1.736 12.339-.71 1.577-2.192 2.36-4.493 2.398l-3.516.082c-2.961.08-4.435-1.276-4.463-4.057l.395-21.253s-46.581.981-47.296 1.002c8.901 37.568-21.711 36.525-21.711 36.525l5.62 14.325s39.229-4.356 31.979-41.19l16.926-.603z"/><polygon points="229.645,363.73 229.011,341.133 208.14,344.305 208.75,364.634 168.738,366.392 168.723,377.846 209.065,376.081 209.266,383.78 175.885,383.839 175.859,395.295 209.564,395.226 230.433,395.276 258.023,395.346 258.044,383.889 230.146,383.82 229.94,375.166 265.063,373.641 265.098,362.197"/></g><path d="M115.869 418.816l26.846-.914 4.987-14.234-36.35.392v-6.024h17.384l-.014.117h13.282l4.927-63.999-87.794 4.056 1.3 10.621 72.229-4.336-1.339 18.069-19.975 1.648v-12.75l-13.403.985.06 12.88-22.066 1.838-1.557-19.165-13.949.831 5.871 49.205h31.701v6.165l-41.844.449v16.194l37.156-1.267c-12.979 17.771-37.964 21.357-37.964 21.357l5.172 20.108s23.946-9.015 37.479-25.934v36.646l13.343 2.561v-42.869c14.272 16.424 41.752 21.995 41.752 21.995l5.282-19.036c.001.001-28.771-2.475-42.516-15.589zm14.316-40.419l-.692 9.297h-18.141v-9.297h18.833zm-51.812 9.297l-1.094-9.297h20.73v9.297h-19.636z" fill="#2ea1cf"/></g></svg>